<svg enable-background="new 0 0 68 76" viewBox="0 0 68 76" xmlns="http://www.w3.org/2000/svg"><path d="m0 0h68v76.294h-68z" fill="#036"/><path d="m62.749 55.582h-12.482s-.004 7.895-.002 8.855c.007 2.304 2.753 5.63 6.129 5.63 3.951 0 6.363-3.592 6.363-5.696 0-1.755-.008-8.789-.008-8.789z" fill="none" stroke="#fff" stroke-width=".5015"/><path d="m56.08 48.523.539-.039.578 3.726-.733-.423-.922.461.5-3.841" fill="none" stroke="#fff" stroke-width=".5015"/><path d="m50.185 51.825.938.636s1.331-2.296 2.945-3.266c.725-.441 2.355-.981 1.205-.868-4.017.407-5.088 3.498-5.088 3.498z" fill="none" stroke="#fff" stroke-width=".5015"/><path d="m52.662 52.287h1.444s.652-2.27 1.917-3.649c.315-.344.076-.329-.712.076-1.456.749-2.649 3.573-2.649 3.573z" fill="none" stroke="#fff" stroke-width=".5015"/><path d="m62.462 51.766-1.091.646s-1.202-2.239-2.822-3.23c-.723-.443-2.371-.918-1.221-.854 3.749.22 5.134 3.438 5.134 3.438z" fill="none" stroke="#fff" stroke-width=".5015"/><path d="m60.114 52.283-1.439.017s-.679-2.261-1.966-3.629c-.315-.339-.078-.324.713.069 1.469.731 2.692 3.543 2.692 3.543z" fill="none" stroke="#fff" stroke-width=".5015"/><path d="m50.803 53.165s.209.563 1.002.563c.86 0 1-.6 1-.6l-.666-.854 1.264-1.316 1.065 1.336-.662.811s.266.586.979.586c.633 0 1.008-.612 1.008-.612l-.684-.784 1.274-1.308 1.055 1.333-.651.767s.495.701 1.071.643 1.016-.563 1.016-.563l-.722-.825 1.248-1.354 1.055 1.308-.699.865s.564.593 1.153.569c.575-.021 1.001-.624 1.001-.624l-.695-.764 1.899-1.28-.403 3.742h-12.508l-.524-3.628 1.673 1.166z" fill="#004a80" stroke="#fff" stroke-width=".5015"/><circle cx="56.351" cy="47.713" fill="#004a80" r=".871" stroke="#fff" stroke-width=".5015"/><path d="m56.646 46.831v-.435l.613-.014v-.507h-.657v-.609h-.61v.609h-.636v.507l.693.014.001.444z" fill="#fff" stroke="#fff" stroke-width=".412"/><path d="m56.232 58.964-.335-1.966.548-.619.572.666-.389 1.922 1.537-1.179.825.133-.348.81-1.758.596 1.663.652.33.792-.886.143-1.373-1.238.302 1.813-.496.648-.573-.635.365-1.826-1.431 1.207-.894-.145.371-.793 1.773-.641-1.826-.712-.259-.764.78-.176z" fill="#fff"/><path d="m50.303 63.169c.145 0 .412-.261 1.312-.302 1.051-.052 1.403.449 2.305.499.771.042 1.293-.473 2.475-.499 1.069-.025 1.848.475 2.578.449.721-.023 1.197-.609 2.451-.551 1.075.05 1.125.199 1.326.301" fill="none" stroke="#fff" stroke-width=".5015"/><path d="m50.66 66.069c.217-.08.52-.159.951-.18 1.051-.05 1.404.45 2.304.498.771.045 1.292-.473 2.474-.498 1.072-.022 1.848.474 2.582.45.721-.023 1.196-.607 2.448-.551.491.021.784.098.972.181" fill="none" stroke="#fff" stroke-width=".5015"/><g fill="#fff"><path d="m7.374 40.553c0 1-.018 1.711.923 2.266v.057h-3.157v-.057c.947-.555.947-1.266.947-2.266v-7.122c0-1.001 0-1.715-.927-2.251v-.053h2.607v.018c.073.215.141.304.269.447l.246.358 6.533 8.249v-6.766c0-1.001.018-1.715-.929-2.251v-.053h3.145v.053c-.931.534-.931 1.248-.931 2.249v10.015c-1.27-.432-1.821-1.02-2.609-2.038l-6.117-7.761z"/><path d="m21.525 38.464-.928 2.516c-.375 1-.501 1.518.355 1.838v.057h-3.287v-.057c1.037-.518 1.341-1.518 1.735-2.533l2.978-7.443c.25-.643.589-1.394-.264-1.662v-.053h2.817l3.712 9.159c.41 1.016.733 2.016 1.751 2.533v.057h-3.658v-.057c.871-.392.728-.589.246-1.838l-.961-2.516h-4.496zm2.229-5.818-1.763 4.497h3.513z"/><path d="m34.805 40.553c0 1.016-.018 1.711.929 2.266v.057h-3.538v-.057c.893-.338.785-1.643.785-2.443v-7.962h-1.567c-.768 0-1.572.196-2.127.716h-.053l.626-2.122h.054c.214.088.447.088.679.12h.446 6.654c.303 0 .592-.014.822-.12h.051l-.57 2.122h-.053c-.231-.627-.947-.716-1.536-.716h-1.603v8.139z"/><path d="m48.208 41.695c-.786 1.035-2.252 1.462-3.497 1.462-1.18 0-2.432-.374-3.235-1.248-.941-1.04-.905-2.231-.905-3.516v-4.766c0-.803.125-2.108-.788-2.448v-.053h3.392v.053c-.895.34-.788 1.645-.788 2.448v4.766c0 2.372 1.001 3.479 2.844 3.479.994 0 2.011-.41 2.602-1.252.395-.529.377-.977.377-1.62v-5.374c0-.803.105-2.108-.786-2.448v-.053h3.389l.017.053c-.906.34-.798 1.645-.798 2.467v6.728c0 .801-.108 2.105.798 2.443v.057h-2.619v-1.178z"/><path d="m56.611 31.126c2.396 0 3.692 1.25 3.692 2.877 0 1.572-1.368 2.8-2.836 3.138l2.566 3.233c.754.926 1.878 1.854 2.896 2.5h-1.642c-.948 0-1.537-.234-2.067-.895l-2.183-2.694-1.642-2.518c1.431-.215 3.091-.875 3.091-2.552 0-1.286-1.107-2.036-2.305-1.983-.411.019-.805.073-1.21.144v7.998c0 .818-.106 2.123.799 2.443v.057h-3.408v-.057c.913-.32.787-1.643.787-2.443v-6.728c0-.822.126-2.127-.787-2.467v-.053z"/><path d="m11.196 50.2c.36-.943.814-2.039-.015-2.373v-.038h1.988l-3.521 9.178c-.935-.613-1.242-.721-1.625-1.776l-2.018-5.452c-.252-.684-.454-1.458-1.041-1.911v-.038h1.951l-.014.158c0 .295.254.949.36 1.241l2.118 5.801z"/><path d="m14.823 53.271-.696 1.879c-.278.749-.372 1.136.268 1.375v.041h-2.451v-.041c.775-.387.996-1.135 1.288-1.898l2.232-5.56c.188-.479.44-1.039-.2-1.24v-.038h2.109l2.774 6.838c.304.764.547 1.512 1.307 1.898v.041h-2.738v-.041c.657-.293.548-.44.188-1.375l-.721-1.879zm1.668-4.348-1.321 3.36h2.626zm.148-1.683c-.668 0-1.202-.562-1.202-1.242 0-.669.548-1.224 1.227-1.224.683 0 1.239.53 1.239 1.208 0 .709-.556 1.258-1.264 1.258zm.013-.495c.441 0 .761-.292.761-.721 0-.441-.294-.761-.749-.761-.44 0-.733.308-.733.734 0 .442.307.748.721.748z"/><path d="m25.548 47.789c1.786 0 2.761.934 2.761 2.146 0 1.172-1.028 2.093-2.118 2.349l1.919 2.414c.56.693 1.401 1.388 2.161 1.869h-1.227c-.709 0-1.149-.174-1.55-.667l-1.622-2.014-1.231-1.883c1.069-.159 2.311-.654 2.311-1.909 0-.956-.827-1.518-1.722-1.479-.307.014-.602.054-.907.108v5.975c0 .614-.081 1.589.601 1.828v.041h-2.551v-.041c.681-.239.587-1.229.587-1.828v-5.028c0-.615.094-1.589-.587-1.843v-.038z"/><path d="m31.722 49.617c0-.614.093-1.589-.584-1.79v-.038h3.267c3.041 0 4.937 1.655 4.937 4.309 0 2.626-2.014 4.469-5.002 4.469h-3.202v-.041c.664-.453.584-1.095.584-1.883zm1.362 5.894c.32.064.64.093.976.093 1.987 0 3.761-1.041 3.761-3.347 0-2.336-1.311-3.508-3.535-3.508-.402 0-.802.055-1.202.147z"/><path d="m45.82 49.378c-.515-.534-1.343-.842-2.092-.842-.761 0-1.722.292-1.722 1.214 0 1.824 4.591 1.798 4.591 4.27 0 1.425-1.493 2.761-3.576 2.761-.815 0-1.627-.121-2.385-.399l-.388-1.672c.783.682 1.876 1.11 2.92 1.11.761 0 1.911-.455 1.911-1.385 0-2.085-4.59-1.71-4.59-4.54 0-1.679 1.716-2.319 3.348-2.319.666 0 1.347.091 1.982.292v1.51z"/><path d="m10.701 63.904c.317-.826.717-1.789-.013-2.082v-.034h1.75l-3.095 8.062c-.822-.54-1.09-.635-1.428-1.556l-1.771-4.793c-.222-.6-.398-1.281-.915-1.679v-.034h1.711l-.012.141c0 .258.223.832.318 1.089l1.859 5.099z"/><path d="m15 68.515 1.489.136c.773.072 1.578-.171 2.165-.686h.036l-.529 1.531h-4.886v-.035c.598-.211.529-1.072.529-1.602v-4.418c0-.54.069-1.398-.529-1.619v-.034h3.754c.199 0 .397.022.551-.061h.031v1.373h-.031c-.364-.421-.846-.47-1.386-.47-.411 0-.82.012-1.195.083v2.177h1.396c.189 0 .376 0 .517-.069h.033v1.245h-.033c-.189-.343-.682-.331-1.044-.331h-.868z"/><path d="m22.186 61.788c1.565 0 2.421.819 2.421 1.888 0 1.029-.902 1.836-1.865 2.06l1.691 2.124c.492.61 1.23 1.213 1.899 1.637h-1.079c-.622 0-1.008-.149-1.362-.586l-1.43-1.767-1.075-1.653c.934-.142 2.024-.575 2.024-1.674 0-.845-.728-1.336-1.508-1.303-.27.011-.529.046-.798.094v5.252c0 .539-.07 1.391.528 1.602v.035h-2.24v-.035c.598-.211.516-1.072.516-1.602v-4.418c0-.54.082-1.398-.516-1.619v-.034h2.794z"/><path d="m27.638 63.43c0-.528.072-1.387-.526-1.607v-.034h2.252v.034c-.599.211-.529 1.079-.529 1.607v4.418c0 .541-.07 1.391.529 1.613v.035h-2.252v-.035c.598-.223.526-1.086.526-1.613zm2.888.023c.385-.552 1.088-1.278.304-1.631v-.034h2.107v.011l-2.696 3.457 2.367 3.107c.362.477.81.806 1.407 1.098v.035h-1.101c-.576 0-1.116-.223-1.324-.505l-2.602-3.501z"/><path d="m36.649 68.515 1.487.136c.775.072 1.584-.171 2.172-.686h.035l-.529 1.531h-4.886v-.035c.597-.211.529-1.072.529-1.602v-4.418c0-.54.068-1.398-.529-1.619v-.034h3.749c.199 0 .398.022.553-.061h.033v1.373h-.033c-.365-.421-.843-.47-1.385-.47-.411 0-.821.012-1.195.083v2.177h1.396c.188 0 .374 0 .515-.069h.035v1.245h-.035c-.188-.343-.681-.331-1.046-.331h-.865v2.78z"/><path d="m44.184 67.977c0 .664-.014 1.121.609 1.484v.035h-2.321v-.035c.585-.223.515-1.072.515-1.602v-5.229h-1.034c-.501 0-1.024.13-1.388.47h-.037l.408-1.396h.037c.14.058.289.058.443.083h.292 4.37c.2 0 .388-.014.539-.083h.036l-.375 1.396h-.034c-.155-.41-.616-.47-1.003-.47h-1.058v5.347z"/></g></svg>